<svg xmlns="http://www.w3.org/2000/svg" viewBox="0 0 295 110" role="img" aria-label="Anchor Platforms">
  <defs>
    <mask id="ht-r31"><rect width="100" height="100" fill="#fff"/><circle cx="50" cy="50" r="31" fill="#000"/></mask>
    <mask id="ht-r20"><rect width="100" height="100" fill="#fff"/><circle cx="50" cy="50" r="20" fill="#000"/></mask>
    <mask id="ht-a"><rect width="100" height="100" fill="#fff"/><path d="M39 62 L50 33 L61 62 M44 50.5 L56 50.5" fill="none" stroke="#000" stroke-width="4.6" stroke-linecap="round" stroke-linejoin="round"/></mask>
  </defs>
  <g transform="translate(4,5)">
    <circle cx="50" cy="50" r="42" fill="#65DEF1" mask="url(#ht-r31)"/>
    <circle cx="50" cy="50" r="31" fill="#FF5B5B" mask="url(#ht-r20)"/>
    <circle cx="50" cy="50" r="20" fill="#FFD257" mask="url(#ht-a)"/>
  </g>
  <path d="M128.74 63L120.64 63L130.95 32.64L141.80 32.64L152.11 63L144.01 63L136.74 38.44L136.01 38.44L128.74 63ZM147.09 57.30L126.76 57.30L126.76 52.33L147.09 52.33L147.09 57.30ZM163.01 63L155.60 63L155.60 48.37L155.60 38.71L161.58 38.71L161.68 45.84L162.60 45.84Q163.19 43.27 164.30 41.52Q165.40 39.77 167.10 38.92Q168.81 38.07 171.11 38.07L171.11 38.07Q175.38 38.07 177.62 41.06Q179.85 44.05 179.85 50.58L179.85 50.58L179.85 63L172.39 63L172.39 51.41Q172.39 47.64 171.31 45.91Q170.23 44.19 168.12 44.19L168.12 44.19Q166.37 44.19 165.24 45.24Q164.11 46.30 163.56 48.05Q163.01 49.80 163.01 51.96L163.01 51.96L163.01 63ZM196.64 63.64L196.64 63.64Q193.51 63.64 191.12 62.77Q188.72 61.90 187.11 60.26Q185.50 58.63 184.65 56.33Q183.80 54.03 183.80 51.18L183.80 51.18Q183.80 48.23 184.65 45.84Q185.50 43.45 187.11 41.70Q188.72 39.95 191.07 39.01Q193.42 38.07 196.45 38.07L196.45 38.07Q199.49 38.07 201.70 39.03Q203.90 40 205.31 41.75Q206.71 43.50 207.22 45.80L207.22 45.80L200.36 48.10Q200.22 46.58 199.63 45.61Q199.03 44.65 198.09 44.21Q197.14 43.77 196.04 43.77L196.04 43.77Q194.89 43.77 194.01 44.23Q193.14 44.69 192.54 45.61Q191.94 46.53 191.62 47.84Q191.30 49.15 191.30 50.86L191.30 50.86Q191.30 53.29 191.92 54.93Q192.54 56.56 193.76 57.39Q194.98 58.22 196.73 58.22L196.73 58.22Q198.52 58.22 199.53 57.48Q200.55 56.74 201.01 55.66Q201.47 54.58 201.56 53.52L201.56 53.52L208.00 54.95Q207.81 56.65 207.10 58.24Q206.39 59.83 205.01 61.05Q203.63 62.26 201.58 62.95Q199.53 63.64 196.64 63.64ZM218.85 63L211.45 63L211.45 47.54L211.45 29.88L218.85 29.88L218.85 37.47Q218.85 38.39 218.78 39.38Q218.72 40.37 218.56 41.40Q218.39 42.44 218.23 43.50Q218.07 44.55 217.84 45.57L217.84 45.57L218.95 45.57Q219.59 43.31 220.56 41.63Q221.52 39.95 223.09 39.01Q224.65 38.07 227.09 38.07L227.09 38.07Q231.41 38.07 233.55 41.08Q235.69 44.09 235.69 50.35L235.69 50.35L235.69 63L228.24 63L228.24 51.59Q228.24 47.87 227.16 46.00Q226.08 44.14 223.87 44.14L223.87 44.14Q222.17 44.14 221.06 45.20Q219.96 46.26 219.41 48.03Q218.85 49.80 218.85 51.96L218.85 51.96L218.85 63ZM252.20 63.64L252.20 63.64Q248.52 63.64 245.69 62.22Q242.87 60.79 241.26 57.94Q239.65 55.09 239.65 50.81L239.65 50.81Q239.65 46.53 241.26 43.70Q242.87 40.87 245.72 39.47Q248.57 38.07 252.25 38.07L252.25 38.07Q255.93 38.07 258.78 39.49Q261.63 40.92 263.24 43.75Q264.85 46.58 264.85 50.86L264.85 50.86Q264.85 55.23 263.20 58.08Q261.54 60.93 258.67 62.29Q255.79 63.64 252.20 63.64ZM252.43 58.26L252.43 58.26Q254.09 58.26 255.19 57.50Q256.30 56.74 256.85 55.18Q257.40 53.62 257.40 51.32L257.40 51.32Q257.40 48.88 256.80 47.20Q256.21 45.52 255.03 44.62Q253.86 43.73 252.02 43.73L252.02 43.73Q250.46 43.73 249.33 44.48Q248.20 45.24 247.65 46.81Q247.10 48.37 247.10 50.72L247.10 50.72Q247.10 54.49 248.50 56.38Q249.90 58.26 252.43 58.26ZM276.63 63L269.18 63L269.18 51.73L269.18 38.71L275.25 38.71L275.39 46.95L276.31 46.95Q276.63 43.73 277.53 41.82Q278.42 39.91 280.10 39.03Q281.78 38.16 284.27 38.16L284.27 38.16Q284.63 38.16 285.09 38.18Q285.55 38.21 286.15 38.30L286.15 38.30L285.88 46.21Q285.14 45.84 284.29 45.73Q283.44 45.61 282.79 45.61L282.79 45.61Q281 45.61 279.69 46.30Q278.38 46.99 277.62 48.42Q276.86 49.84 276.63 52.01L276.63 52.01L276.63 63Z" fill="#22242F"/>
  <path d="M124.03 84L123.02 84L123.02 75.60L126.02 75.60Q126.88 75.60 127.45 75.92Q128.02 76.24 128.31 76.75Q128.59 77.27 128.59 77.88L128.59 77.88L128.59 78.24Q128.59 78.85 128.30 79.38Q128.01 79.91 127.44 80.23Q126.87 80.54 126.02 80.54L126.02 80.54L124.03 80.54L124.03 84ZM124.03 76.54L124.03 79.61L125.90 79.61Q127.58 79.61 127.58 78.17L127.58 78.17L127.58 77.95Q127.58 77.32 127.17 76.93Q126.75 76.54 125.90 76.54L125.90 76.54L124.03 76.54ZM141.19 84L135.79 84L135.79 75.60L136.80 75.60L136.80 83.06L141.19 83.06L141.19 84ZM148.75 84L147.67 84L150.21 75.60L152.11 75.60L154.65 84L153.57 84L152.96 81.91L149.36 81.91L148.75 84ZM151.09 76.03L149.64 80.98L152.68 80.98L151.23 76.03L151.09 76.03ZM164.41 84L163.40 84L163.40 76.54L160.95 76.54L160.95 75.60L166.86 75.60L166.86 76.54L164.41 76.54L164.41 84ZM175.12 84L174.12 84L174.12 75.60L179.28 75.60L179.28 76.54L175.12 76.54L175.12 79.32L179.20 79.32L179.20 80.26L175.12 80.26L175.12 84ZM189.39 84.17L189.39 84.17Q188.01 84.17 187.23 83.29Q186.44 82.40 186.44 80.74L186.44 80.74L186.44 78.86Q186.44 77.24 187.23 76.34Q188.01 75.43 189.39 75.43L189.39 75.43Q190.78 75.43 191.56 76.34Q192.34 77.24 192.34 78.86L192.34 78.86L192.34 80.74Q192.34 82.40 191.56 83.29Q190.78 84.17 189.39 84.17ZM189.39 83.23L189.39 83.23Q190.36 83.23 190.85 82.56Q191.34 81.89 191.34 80.66L191.34 80.66L191.34 78.94Q191.34 77.78 190.85 77.08Q190.36 76.37 189.39 76.37L189.39 76.37Q188.42 76.37 187.93 77.08Q187.45 77.78 187.45 78.94L187.45 78.94L187.45 80.66Q187.45 81.89 187.93 82.56Q188.42 83.23 189.39 83.23ZM200.49 84L199.48 84L199.48 75.60L202.48 75.60Q203.35 75.60 203.92 75.92Q204.49 76.24 204.77 76.75Q205.05 77.27 205.05 77.88L205.05 77.88L205.05 78.24Q205.05 78.71 204.79 79.18Q204.54 79.64 204.00 79.90L204.00 79.90L204.00 80.04Q204.36 80.09 204.56 80.32Q204.76 80.56 204.76 80.98L204.76 80.98L204.76 84L203.76 84L203.76 81.19Q203.76 80.88 203.61 80.71Q203.47 80.54 203.11 80.54L203.11 80.54L200.49 80.54L200.49 84ZM200.49 76.54L200.49 79.61L202.36 79.61Q204.04 79.61 204.04 78.17L204.04 78.17L204.04 77.95Q204.04 77.32 203.63 76.93Q203.22 76.54 202.36 76.54L202.36 76.54L200.49 76.54ZM212.70 84L211.76 84L211.76 75.60L213.68 75.60L214.81 83.57L214.95 83.57L216.08 75.60L218 75.60L218 84L217.06 84L217.06 76.03L216.92 76.03L215.79 84L213.97 84L212.84 76.03L212.70 76.03L212.70 84ZM227.79 84.17L227.79 84.17Q226.71 84.17 225.98 83.77Q225.25 83.36 224.87 82.67Q224.49 81.97 224.49 81.10L224.49 81.10L224.49 80.74L225.50 80.74L225.50 81.02Q225.50 82.12 226.11 82.67Q226.72 83.23 227.79 83.23L227.79 83.23Q228.73 83.23 229.20 82.81Q229.68 82.39 229.68 81.72L229.68 81.72L229.68 81.65Q229.68 80.99 229.19 80.64Q228.70 80.29 227.61 80.14L227.61 80.14Q226.35 79.96 225.60 79.42Q224.85 78.89 224.85 77.81L224.85 77.81L224.85 77.66Q224.85 77.00 225.21 76.51Q225.56 76.01 226.18 75.72Q226.81 75.43 227.62 75.43L227.62 75.43Q228.57 75.43 229.24 75.78Q229.90 76.13 230.26 76.70Q230.61 77.27 230.61 77.95L230.61 77.95L230.61 78.46L229.60 78.46L229.60 78.02Q229.60 77.47 229.33 77.11Q229.05 76.74 228.60 76.55Q228.14 76.37 227.61 76.37L227.61 76.37Q227.16 76.37 226.75 76.52Q226.35 76.68 226.11 76.97Q225.86 77.27 225.86 77.70L225.86 77.70L225.86 77.77Q225.86 78.47 226.42 78.79Q226.99 79.10 228.12 79.27L228.12 79.27Q229.44 79.46 230.06 80.04Q230.68 80.62 230.68 81.58L230.68 81.58L230.68 81.72Q230.68 82.81 229.95 83.49Q229.21 84.17 227.79 84.17Z" fill="#6B6E7E"/>
</svg>
